<svg width="55" height="50" viewBox="0 0 55 50" fill="none" xmlns="http://www.w3.org/2000/svg">
<path d="M16.9884 38.1206C15.0958 37.9128 13.4872 37.3902 12.1627 36.5526C10.8399 35.6992 9.87464 34.5952 9.26683 33.2408C8.65901 31.8864 8.44765 30.3662 8.63275 28.6804C8.88944 26.3424 9.55468 24.3149 10.6285 22.5978C11.7182 20.8825 13.0727 19.6148 14.6918 18.7946C16.3128 17.9585 18.0457 17.6417 19.8906 17.8443C21.6083 18.0329 22.8636 18.6214 23.6564 19.6098C24.451 20.5823 24.7689 21.7922 24.61 23.2395C24.5035 24.2097 24.2429 24.9698 23.8284 25.5199C23.4298 26.0717 22.9124 26.3126 22.2763 26.2428C21.8309 26.1939 21.4924 26.0521 21.2606 25.8174C21.0289 25.5827 20.9348 25.2666 20.9785 24.8689C20.9942 24.7258 21.0548 24.4669 21.1603 24.0922C21.3081 23.6255 21.3977 23.249 21.4292 22.9628C21.5881 21.5155 20.8962 20.7071 19.3534 20.5377C18.3037 20.4225 17.2642 20.6544 16.2349 21.2335C15.2055 21.8127 14.3233 22.7379 13.5881 24.0093C12.8547 25.2647 12.3876 26.807 12.1868 28.636C11.9773 30.5445 12.3477 32.0821 13.298 33.2488C14.2501 34.3996 15.7679 35.0893 17.8514 35.3181C18.8852 35.4316 19.9409 35.4187 21.0185 35.2795C22.1138 35.1261 23.3353 34.8498 24.6829 34.4505C24.9319 34.3812 25.136 34.3553 25.295 34.3728C25.5495 34.4008 25.7299 34.5171 25.8362 34.722C25.9424 34.9268 25.979 35.1803 25.9458 35.4825C25.8393 36.4526 25.2359 37.1107 24.1355 37.4567C22.9522 37.8257 21.7351 38.0623 20.4843 38.1664C19.2511 38.2564 18.0858 38.2411 16.9884 38.1206Z" fill="white"/>
<path d="M35.4198 31.6933C34.4962 31.6026 33.461 31.4206 32.3142 31.1473C31.6851 31.0052 31.2636 30.795 31.0498 30.5167C30.836 30.2385 30.7731 29.8144 30.8612 29.2442C31.1274 27.6788 31.5809 25.7619 32.2216 23.4936C32.8638 21.2094 33.585 19.0214 34.3852 16.9296C34.5358 16.5425 34.786 16.2857 35.1361 16.1593C35.4861 16.0329 35.9318 15.9962 36.4732 16.0494C37.4445 16.1447 37.9036 16.4631 37.8505 17.0045C37.8286 17.2274 37.7558 17.4775 37.6321 17.7548C37.0931 18.988 36.511 20.6591 35.886 22.7682C35.2625 24.8613 34.7678 26.8705 34.402 28.796C34.875 28.8907 35.414 28.9677 36.0191 29.0271C38.8057 29.3007 40.9666 28.6607 42.5017 27.1073C44.0527 25.5554 44.9666 23.3702 45.2433 20.5518C45.4293 18.6569 45.0317 17.1388 44.0505 15.9974C43.0693 14.8561 41.5915 14.1885 39.617 13.9947C38.3431 13.8697 37.0576 13.9444 35.7606 14.219C34.4795 14.4952 33.3053 14.9104 32.238 15.4648C32.017 15.5878 31.787 15.6376 31.5482 15.6141C31.2775 15.5876 31.0734 15.455 30.9361 15.2164C30.8003 14.962 30.7488 14.6675 30.7816 14.3331C30.8192 13.951 30.9133 13.6467 31.0642 13.4204C31.2166 13.1781 31.4542 12.9683 31.7771 12.791C32.9493 12.1505 34.2946 11.7118 35.8129 11.475C37.3329 11.2223 38.7776 11.1632 40.147 11.2976C42.0897 11.4883 43.736 11.9956 45.086 12.8194C46.4375 13.6273 47.4313 14.7216 48.0675 16.1024C48.7036 17.4832 48.931 19.0971 48.7497 20.9442C48.5137 23.3487 47.8296 25.4037 46.6976 27.1092C45.5671 28.7988 44.0378 30.0474 42.1097 30.8549C40.1816 31.6624 37.9516 31.9419 35.4198 31.6933Z" fill="white"/>
<path d="M49.6102 13.5172C49.4974 13.4557 49.4179 13.362 49.3715 13.2362C49.3375 13.107 49.3522 12.9843 49.4156 12.868C49.4452 12.8137 49.5055 12.7511 49.5965 12.68L52.0392 10.8741C52.1962 10.7586 52.3501 10.6967 52.5009 10.6884C52.664 10.6768 52.8181 10.7105 52.963 10.7896C53.1644 10.8994 53.3035 11.0658 53.3805 11.2888C53.4655 11.5162 53.4509 11.7345 53.3367 11.9438C53.2184 12.1609 53.0114 12.3296 52.7158 12.4501L50.1046 13.5304C49.928 13.6051 49.7632 13.6007 49.6102 13.5172Z" fill="white"/>
<path d="M48.0855 12.0507C47.9573 12.0576 47.8404 12.0196 47.7349 11.9368C47.6381 11.8447 47.5862 11.7325 47.5792 11.6002C47.5759 11.5385 47.5943 11.4535 47.6345 11.3453L48.7658 8.52607C48.8388 8.34532 48.9374 8.21185 49.0614 8.12565C49.1941 8.03015 49.3429 7.978 49.5078 7.96921C49.7369 7.957 49.9426 8.02561 50.1252 8.17504C50.3169 8.32399 50.419 8.5175 50.4317 8.75557C50.4449 9.00246 50.3573 9.25472 50.1689 9.51236L48.5133 11.8024C48.4022 11.9587 48.2596 12.0414 48.0855 12.0507Z" fill="white"/>
<path d="M50.2726 15.7834C50.2001 15.6774 50.1717 15.5579 50.1876 15.4247C50.2159 15.2941 50.2847 15.1914 50.394 15.1166C50.445 15.0817 50.5272 15.0533 50.6405 15.0313L53.6368 14.5311C53.8292 14.4995 53.9944 14.5143 54.1325 14.5753C54.2831 14.639 54.4051 14.739 54.4984 14.8753C54.6279 15.0645 54.6764 15.276 54.6437 15.5096C54.6162 15.7508 54.504 15.9387 54.3073 16.0734C54.1033 16.213 53.8423 16.2694 53.5242 16.2425L50.7072 16.0196C50.5159 16.006 50.3711 15.9273 50.2726 15.7834Z" fill="white"/>
<circle cx="3.30946" cy="26.4384" r="3" transform="rotate(6.26552 3.30946 26.4384)" fill="white"/>
</svg>
