<svg width="31" height="31" viewBox="0 0 31 31" fill="none" xmlns="http://www.w3.org/2000/svg">
<path d="M27.6787 0C29.5123 7.45534e-05 30.9999 1.48769 31 3.32129V27.6787C30.9999 29.5123 29.5123 30.9999 27.6787 31H3.32129C1.48769 30.9999 7.45531e-05 29.5123 0 27.6787V3.32129C7.55204e-05 1.48769 1.48769 7.55202e-05 3.32129 0H27.6787ZM25.5049 9.64355H16.8447C11.0315 9.64961 6.30371 14.3808 6.30371 20.1953C6.30376 23.0832 7.47083 25.7042 9.35742 27.6113C9.74876 28.0062 10.3959 27.9744 10.751 27.5469C11.0613 27.1725 11.0351 26.6257 10.6934 26.2803C9.14738 24.715 8.19048 22.565 8.19043 20.1953C8.19043 15.4172 12.0774 11.5306 16.8555 11.5293H25.5059C26.0263 11.5293 26.4491 11.1064 26.4492 10.5859C26.4492 10.0654 26.0264 9.64258 25.5059 9.64258L25.5049 9.64355ZM22.3525 13.0117H16.8555C12.8769 13.0117 9.64062 16.2492 9.64062 20.2266C9.64072 23.833 12.3023 26.8306 15.7627 27.3584C16.3362 27.4463 16.8555 27.0066 16.8555 26.4258C16.8553 25.9598 16.5146 25.564 16.0547 25.4951C13.4954 25.1074 11.5265 22.8921 11.5264 20.2266C11.5264 17.2891 13.9171 14.8987 16.8545 14.8975H22.3525C22.8729 14.8972 23.2959 14.4745 23.2959 13.9541C23.2959 13.4337 22.8729 13.011 22.3525 13.0107V13.0117ZM16.8564 16.3486C14.7187 16.3486 12.9787 18.0879 12.9785 20.2256C12.9785 21.9226 14.0758 23.3703 15.5977 23.8945C16.2136 24.1068 16.8574 23.6558 16.8574 23.0049C16.8573 22.5967 16.5923 22.2424 16.207 22.1084C15.4272 21.8377 14.8674 21.0968 14.8672 20.2275C14.8672 19.1296 15.7595 18.2366 16.8574 18.2354H18.0674C18.588 18.2354 19.0107 17.8126 19.0107 17.292C19.0107 16.7715 18.5879 16.3486 18.0674 16.3486H16.8564ZM28.6797 6.33691H16.8564C9.5346 6.33691 3.5177 12.031 3.00195 19.2236C2.96341 19.7647 3.38767 20.2256 3.92871 20.2256H3.95605C4.44632 20.2256 4.84762 19.8445 4.88281 19.3555C5.3297 13.1413 10.528 8.2228 16.8545 8.22266H28.6777C29.1983 8.22266 29.6211 7.79985 29.6211 7.2793C29.6211 6.75872 29.1983 6.33594 28.6777 6.33594L28.6797 6.33691ZM16.8555 3C12.72 3 8.91968 4.46487 5.94727 6.90332C5.53057 7.24514 5.49168 7.8702 5.85645 8.26758C6.19464 8.63594 6.76171 8.6741 7.14941 8.35645V8.3584C9.79575 6.1904 13.1765 4.88672 16.8555 4.88672H21.2979C21.8182 4.88648 22.2412 4.46379 22.2412 3.94336C22.2412 3.42296 21.8182 3.00024 21.2979 3H16.8555Z" fill="black"/>
</svg>
